#N canvas 268 60 932 531 12;
#X obj 400 235 +~;
#X floatatom 519 172 5 0 0 0 - - -, f 5;
#X floatatom 430 111 5 0 0 0 - - -, f 5;
#X floatatom 366 185 5 0 0 0 - - -, f 5;
#X obj 399 265 osc~;
#X obj 393 303 *~ 0.8;
#X obj 390 353 dac~;
#X text 358 158 Carrier;
#X text 432 86 Modulator;
#X text 59 17 3.6.1.2. Frequency modulation;
#X obj 326 62 receive mod;
#X obj 224 144 receive carr;
#X obj 513 295 bng 15 250 50 0 empty empty empty 17 7 0 10 -262144
-1 -1;
#X obj 518 329 bng 15 250 50 0 empty empty empty 17 7 0 10 -262144
-1 -1;
#X obj 592 315 receive off;
#X obj 593 264 receive on;
#X obj 569 124 receive modAmp;
#X msg 460 296 1;
#X msg 462 330 0;
#X obj 430 137 osc~ 140;
#X obj 430 192 *~ 1;
#X connect 0 0 4 0;
#X connect 1 0 20 1;
#X connect 2 0 19 0;
#X connect 3 0 0 0;
#X connect 4 0 5 0;
#X connect 5 0 6 0;
#X connect 5 0 6 1;
#X connect 10 0 2 0;
#X connect 11 0 3 0;
#X connect 12 0 17 0;
#X connect 13 0 18 0;
#X connect 14 0 13 0;
#X connect 15 0 12 0;
#X connect 16 0 1 0;
#X connect 17 0 5 1;
#X connect 18 0 5 1;
#X connect 19 0 20 0;
#X connect 20 0 0 1;
